# xmcd
# Track frame offsets:
# 150
# 11385
# 22652
# 31827
# 49252
# 60897
# 76985
# 86750
# 96132
# 108317
# 120000
# 133977
# 149477
# 158620
# 168322
# 191365
# 200512
# 211577
# 225687
# 240200
#
# Disc length: 3436 seconds
# Revision: 0
# Processed by: cddbd v1.5.2PL0 Copyright (c) Steve Scherf et al.
# Submitted via: VisiTrax 2.10.0.248 - For more info visit www.synapsa.com
#
DISCID=e80d6a14
DTITLE=BYRDS - 20 Essential Tracks
DYEAR=1992
DGENRE=Blues
TTITLE0=Mr Tambourine Man
TTITLE1=I'll Feel A Whole Lot Better
TTITLE2=All I Really Want To Do
TTITLE3=Turn! Turn! Turn!
TTITLE4=5D
TTITLE5=Eight Miles High
TTITLE6=Mr Spaceman
TTITLE7=So You Want To Be A Rock'N'Roll Star
TTITLE8=Have You Seen Her Face
TTITLE9=Lady Friend
TTITLE10=My Back Pages
TTITLE11=Goin' Back
TTITLE12=Ballad Of Easy Rider
TTITLE13=Jesus Is Just Alright
TTITLE14=Chestnut Mare
TTITLE15=I Wanna Grow Up To Be A Politician
TTITLE16=He Was A Friend Of Mine
TTITLE17=Paths Of Victory
TTITLE18=From A Distance
TTITLE19=Love That Never Dies
EXTD=
EXTT0=
EXTT1=
EXTT2=
EXTT3=
EXTT4=
EXTT5=
EXTT6=
EXTT7=
EXTT8=
EXTT9=
EXTT10=
EXTT11=
EXTT12=
EXTT13=
EXTT14=
EXTT15=
EXTT16=
EXTT17=
EXTT18=
EXTT19=
PLAYORDER=
